<svg width="37" height="26" viewBox="0 0 37 26" fill="none" xmlns="http://www.w3.org/2000/svg">
<g id="Group 457">
<g id="Shape">
<mask id="path-1-outside-1_341_2" maskUnits="userSpaceOnUse" x="0.3125" y="-0.00012207" width="36" height="26" fill="black">
<rect fill="white" x="0.3125" y="-0.00012207" width="36" height="26"/>
<path d="M35.0663 12.9998C35.0663 19.6273 27.5103 24.9999 18.1895 24.9999C8.86854 24.9999 1.3125 19.6273 1.3125 12.9998C1.3125 6.37243 8.86854 0.999878 18.1895 0.999878C27.5102 0.999878 35.0663 6.37243 35.0663 12.9998Z"/>
</mask>
<path d="M35.0663 12.9998C35.0663 19.6273 27.5103 24.9999 18.1895 24.9999C8.86854 24.9999 1.3125 19.6273 1.3125 12.9998C1.3125 6.37243 8.86854 0.999878 18.1895 0.999878C27.5102 0.999878 35.0663 6.37243 35.0663 12.9998Z" fill="#161C2E"/>
<path d="M18.1895 24.9999V23.9999V24.9999ZM34.0663 12.9998C34.0663 15.9047 32.4119 18.6307 29.5437 20.6702C26.6777 22.708 22.6665 23.9999 18.1895 23.9999V25.9999C23.0333 25.9999 27.4606 24.6054 30.7027 22.3001C33.9426 19.9964 36.0663 16.7223 36.0663 12.9998H34.0663ZM18.1895 23.9999C13.7124 23.9999 9.70121 22.708 6.83512 20.6702C3.96685 18.6307 2.3125 15.9047 2.3125 12.9998H0.3125C0.3125 16.7223 2.43617 19.9964 5.67615 22.3001C8.91832 24.6054 13.3456 25.9999 18.1895 25.9999V23.9999ZM2.3125 12.9998C2.3125 10.0949 3.96684 7.36898 6.83511 5.32956C9.7012 3.2917 13.7124 1.99988 18.1895 1.99988V-0.00012207C13.3456 -0.00012207 8.91832 1.39433 5.67616 3.69959C2.43618 6.00329 0.3125 9.2773 0.3125 12.9998H2.3125ZM18.1895 1.99988C22.6665 1.99988 26.6776 3.2917 29.5437 5.32956C32.4119 7.36897 34.0663 10.0949 34.0663 12.9998H36.0663C36.0663 9.2773 33.9426 6.00329 30.7026 3.69959C27.4605 1.39433 23.0333 -0.00012207 18.1895 -0.00012207V1.99988Z" fill="#F2F2F5" fill-opacity="0.1" mask="url(#path-1-outside-1_341_2)"/>
</g>
<g id="Group" opacity="0.8">
<path id="Shape_2" d="M18.1356 7.43176L18.0314 7.68369V14.994L18.1356 15.068L22.9081 13.0622L18.1356 7.43176Z" fill="white"/>
<path id="Shape_3" d="M18.1356 7.43176L13.3631 13.0622L18.1356 15.068V11.5198V7.43176Z" fill="white"/>
<path id="Shape_4" d="M18.1355 16.172L18.0768 16.223V18.8271L18.1355 18.949L22.9109 14.1672L18.1355 16.172Z" fill="white"/>
<path id="Shape_5" d="M18.1356 18.9491V16.172L13.3631 14.1672L18.1356 18.9491Z" fill="white"/>
<path id="Shape_6" d="M18.1356 15.0681L22.908 13.0623L18.1356 11.5199V15.0681Z" fill="white"/>
<path id="Shape_7" d="M13.3631 13.0622L18.1355 15.068V11.5198L13.3631 13.0622Z" fill="white"/>
</g>
</g>
</svg>
